# xmcd
#
# Track frame offsets: 
#        150
#        17655
#        38105
#        55314
#        74085
#        93643
#        112067
#        134347
#        156286
#        171808
#        190269
#        207598
#        224198
#        239479
#        263682
#        273628
#        290136
#        309018
#        326917
#
# Disc length: 4596 seconds
#
# Revision: 0
# Processed by: cddbd v1.5.1PL0 Copyright (c) Steve Scherf et al.
# Submitted via: ExactAudioCopy v0.90b4
#
DISCID=3911f213
DTITLE=John Mayer - Room for Squares
DYEAR=2001
DGENRE=Pop
TTITLE0=No Such Thing
TTITLE1=Why Georgia
TTITLE2=MyStupid Mouth
TTITLE3=Your Body Is A Wonderland
TTITLE4=Neon
TTITLE5=City Love
TTITLE6=83
TTITLE7=3 x 5
TTITLE8=Love Song For No One
TTITLE9=Back To You
TTITLE10=The Great Indoors
TTITLE11=Not Myself
TTITLE12=Unknown Bonus Track
TTITLE13=St. Patricks Day
TTITLE14=Lenny
TTITLE15=The Wind Cries Mary
TTITLE16=Your Body Is A Wonderland Remix
TTITLE17=Neon Acoustic
TTITLE18=The Wind Cries Mary Live
EXTD=
EXTT0=
EXTT1=
EXTT2=
EXTT3=
EXTT4=
EXTT5=
EXTT6=
EXTT7=
EXTT8=
EXTT9=
EXTT10=
EXTT11=
EXTT12=
EXTT13=
EXTT14=
EXTT15=
EXTT16=
EXTT17=
EXTT18=
PLAYORDER=
